<svg xmlns="http://www.w3.org/2000/svg" width="95.5" height="95.5" viewBox="0 0 95.5 95.5"><g transform="translate(-725 -694)"><g transform="translate(725 694)"><g transform="translate(9.326 24.62)"><path d="M60.445,132H52.8a2.8,2.8,0,0,0-2.8,2.8v7.647a2.8,2.8,0,0,0,2.8,2.8h7.647a2.8,2.8,0,0,0,2.8-2.8V134.8a2.8,2.8,0,0,0-2.8-2.8Zm-2.8,7.647H55.6V137.6h2.052Z" transform="translate(-50 -132)" fill="#4a4a4a"/></g><g transform="translate(9.326 39.914)"><path d="M60.445,214H52.8a2.8,2.8,0,0,0-2.8,2.8v7.647a2.8,2.8,0,0,0,2.8,2.8h7.647a2.8,2.8,0,0,0,2.8-2.8V216.8A2.8,2.8,0,0,0,60.445,214Zm-2.8,7.647H55.6V219.6h2.052Z" transform="translate(-50 -214)" fill="#4a4a4a"/></g><g transform="translate(9.326 55.208)"><path d="M60.445,296H52.8a2.8,2.8,0,0,0-2.8,2.8v7.647a2.8,2.8,0,0,0,2.8,2.8h7.647a2.8,2.8,0,0,0,2.8-2.8V298.8A2.8,2.8,0,0,0,60.445,296Zm-2.8,7.647H55.6V301.6h2.052Z" transform="translate(-50 -296)" fill="#4a4a4a"/></g><g transform="translate(35.624 24.62)"><path d="M212.449,132H193.8a2.8,2.8,0,0,0-2.8,2.8v7.647a2.8,2.8,0,0,0,2.8,2.8h18.651a2.8,2.8,0,0,0,2.8-2.8V134.8a2.8,2.8,0,0,0-2.8-2.8Zm-2.8,7.647H196.6V137.6h13.056Z" transform="translate(-191 -132)" fill="#4a4a4a"/></g><g transform="translate(35.624 9.326)"><path d="M212.449,50H193.8a2.8,2.8,0,0,0-2.8,2.8v7.647a2.8,2.8,0,0,0,2.8,2.8h18.651a2.8,2.8,0,0,0,2.8-2.8V52.8a2.8,2.8,0,0,0-2.8-2.8Zm-2.8,7.647H196.6V55.6h13.056Z" transform="translate(-191 -50)" fill="#4a4a4a"/></g><g transform="translate(35.624 39.914)"><path d="M212.449,214H193.8a2.8,2.8,0,0,0-2.8,2.8v7.647a2.8,2.8,0,0,0,2.8,2.8h18.651a2.8,2.8,0,0,0,2.8-2.8V216.8a2.8,2.8,0,0,0-2.8-2.8Zm-2.8,7.647H196.6V219.6h13.056Z" transform="translate(-191 -214)" fill="#4a4a4a"/></g><g transform="translate(35.624 55.208)"><path d="M212.449,296H193.8a2.8,2.8,0,0,0-2.8,2.8v7.647a2.8,2.8,0,0,0,2.8,2.8h18.651a2.8,2.8,0,0,0,2.8-2.8V298.8a2.8,2.8,0,0,0-2.8-2.8Zm-2.8,7.647H196.6V301.6h13.056Z" transform="translate(-191 -296)" fill="#4a4a4a"/></g><g transform="translate(9.326 70.502)"><path d="M60.445,378H52.8a2.8,2.8,0,0,0-2.8,2.8v7.647a2.8,2.8,0,0,0,2.8,2.8h7.647a2.8,2.8,0,0,0,2.8-2.8V380.8A2.8,2.8,0,0,0,60.445,378Zm-2.8,7.647H55.6V383.6h2.052Z" transform="translate(-50 -378)" fill="#4a4a4a"/></g><path d="M92.7,15.294H69.2V2.8A2.8,2.8,0,0,0,66.4,0H29.1a2.8,2.8,0,0,0-2.8,2.8V15.3H2.8A2.8,2.8,0,0,0,0,18.1V92.7a2.8,2.8,0,0,0,2.8,2.8H92.7a2.8,2.8,0,0,0,2.8-2.8V18.092A2.8,2.8,0,0,0,92.7,15.294ZM26.3,89.9H5.6V20.89H26.3Zm26.112,0H43.085V76.1H52.41ZM63.6,18.092V89.9H58V73.3a2.8,2.8,0,0,0-2.8-2.8H40.287a2.8,2.8,0,0,0-2.8,2.8V89.9h-5.6V5.6H63.6ZM89.9,89.9H69.2V20.89H89.9Z" fill="#4a4a4a"/><g transform="translate(72.927 24.62)"><path d="M401.445,132H393.8a2.8,2.8,0,0,0-2.8,2.8v7.647a2.8,2.8,0,0,0,2.8,2.8h7.647a2.8,2.8,0,0,0,2.8-2.8V134.8a2.8,2.8,0,0,0-2.8-2.8Zm-2.8,7.647H396.6V137.6h2.052Z" transform="translate(-391 -132)" fill="#4a4a4a"/></g><g transform="translate(72.927 39.914)"><path d="M401.445,214H393.8a2.8,2.8,0,0,0-2.8,2.8v7.647a2.8,2.8,0,0,0,2.8,2.8h7.647a2.8,2.8,0,0,0,2.8-2.8V216.8a2.8,2.8,0,0,0-2.8-2.8Zm-2.8,7.647H396.6V219.6h2.052Z" transform="translate(-391 -214)" fill="#4a4a4a"/></g><g transform="translate(72.927 55.208)"><path d="M401.445,296H393.8a2.8,2.8,0,0,0-2.8,2.8v7.647a2.8,2.8,0,0,0,2.8,2.8h7.647a2.8,2.8,0,0,0,2.8-2.8V298.8a2.8,2.8,0,0,0-2.8-2.8Zm-2.8,7.647H396.6V301.6h2.052Z" transform="translate(-391 -296)" fill="#4a4a4a"/></g><g transform="translate(72.927 70.502)"><path d="M401.445,378H393.8a2.8,2.8,0,0,0-2.8,2.8v7.647a2.8,2.8,0,0,0,2.8,2.8h7.647a2.8,2.8,0,0,0,2.8-2.8V380.8a2.8,2.8,0,0,0-2.8-2.8Zm-2.8,7.647H396.6V383.6h2.052Z" transform="translate(-391 -378)" fill="#4a4a4a"/></g></g><g transform="translate(762 764)" fill="#02b9ef" stroke="#0183a9" stroke-width="2"><rect width="21" height="20" stroke="none"/><rect x="1" y="1" width="19" height="18" fill="none"/></g><g transform="translate(760 749)" fill="#02b9ef" stroke="#0183a9" stroke-width="2"><rect width="25" height="14" stroke="none"/><rect x="1" y="1" width="23" height="12" fill="none"/></g><g transform="translate(760 733)" fill="#02b9ef" stroke="#0183a9" stroke-width="2"><rect width="25" height="15" stroke="none"/><rect x="1" y="1" width="23" height="13" fill="none"/></g><g transform="translate(760 718)" fill="#02b9ef" stroke="#0183a9" stroke-width="2"><rect width="25" height="14" stroke="none"/><rect x="1" y="1" width="23" height="12" fill="none"/></g><g transform="translate(760 703)" fill="#02b9ef" stroke="#0183a9" stroke-width="2"><rect width="25" height="14" stroke="none"/><rect x="1" y="1" width="23" height="12" fill="none"/></g><g transform="translate(734 718)" fill="#02b9ef" stroke="#0183a9" stroke-width="2"><rect width="14" height="14" stroke="none"/><rect x="1" y="1" width="12" height="12" fill="none"/></g><g transform="translate(734 733)" fill="#02b9ef" stroke="#0183a9" stroke-width="2"><rect width="14" height="15" stroke="none"/><rect x="1" y="1" width="12" height="13" fill="none"/></g><g transform="translate(734 749)" fill="#02b9ef" stroke="#0183a9" stroke-width="2"><rect width="14" height="14" stroke="none"/><rect x="1" y="1" width="12" height="12" fill="none"/></g><g transform="translate(734 764)" fill="#02b9ef" stroke="#0183a9" stroke-width="2"><rect width="14" height="15" stroke="none"/><rect x="1" y="1" width="12" height="13" fill="none"/></g><g transform="translate(798 718)" fill="#02b9ef" stroke="#0183a9" stroke-width="2"><rect width="14" height="14" stroke="none"/><rect x="1" y="1" width="12" height="12" fill="none"/></g><g transform="translate(798 733)" fill="#02b9ef" stroke="#0183a9" stroke-width="2"><rect width="14" height="15" stroke="none"/><rect x="1" y="1" width="12" height="13" fill="none"/></g><g transform="translate(798 749)" fill="#02b9ef" stroke="#0183a9" stroke-width="2"><rect width="14" height="14" stroke="none"/><rect x="1" y="1" width="12" height="12" fill="none"/></g><g transform="translate(798 764)" fill="#02b9ef" stroke="#0183a9" stroke-width="2"><rect width="14" height="15" stroke="none"/><rect x="1" y="1" width="12" height="13" fill="none"/></g></g></svg>