<svg xmlns="http://www.w3.org/2000/svg" width="95.495" height="95.495" viewBox="0 0 95.495 95.495"><defs><style>.a{fill:#4a4a4a;}</style></defs><g transform="translate(9.326 24.62)"><path class="a" d="M60.445,132H52.8a2.8,2.8,0,0,0-2.8,2.8v7.647a2.8,2.8,0,0,0,2.8,2.8h7.647a2.8,2.8,0,0,0,2.8-2.8V134.8A2.8,2.8,0,0,0,60.445,132Zm-2.8,7.647H55.6V137.6h2.052Z" transform="translate(-50 -132)"/></g><g transform="translate(9.326 39.914)"><path class="a" d="M60.445,214H52.8a2.8,2.8,0,0,0-2.8,2.8v7.647a2.8,2.8,0,0,0,2.8,2.8h7.647a2.8,2.8,0,0,0,2.8-2.8V216.8A2.8,2.8,0,0,0,60.445,214Zm-2.8,7.647H55.6V219.6h2.052Z" transform="translate(-50 -214)"/></g><g transform="translate(9.326 55.208)"><path class="a" d="M60.445,296H52.8a2.8,2.8,0,0,0-2.8,2.8v7.647a2.8,2.8,0,0,0,2.8,2.8h7.647a2.8,2.8,0,0,0,2.8-2.8V298.8A2.8,2.8,0,0,0,60.445,296Zm-2.8,7.647H55.6V301.6h2.052Z" transform="translate(-50 -296)"/></g><g transform="translate(35.624 24.62)"><path class="a" d="M212.449,132H193.8a2.8,2.8,0,0,0-2.8,2.8v7.647a2.8,2.8,0,0,0,2.8,2.8h18.651a2.8,2.8,0,0,0,2.8-2.8V134.8A2.8,2.8,0,0,0,212.449,132Zm-2.8,7.647H196.6V137.6h13.056Z" transform="translate(-191 -132)"/></g><g transform="translate(35.624 9.326)"><path class="a" d="M212.449,50H193.8a2.8,2.8,0,0,0-2.8,2.8v7.647a2.8,2.8,0,0,0,2.8,2.8h18.651a2.8,2.8,0,0,0,2.8-2.8V52.8A2.8,2.8,0,0,0,212.449,50Zm-2.8,7.647H196.6V55.6h13.056Z" transform="translate(-191 -50)"/></g><g transform="translate(35.624 39.914)"><path class="a" d="M212.449,214H193.8a2.8,2.8,0,0,0-2.8,2.8v7.647a2.8,2.8,0,0,0,2.8,2.8h18.651a2.8,2.8,0,0,0,2.8-2.8V216.8A2.8,2.8,0,0,0,212.449,214Zm-2.8,7.647H196.6V219.6h13.056Z" transform="translate(-191 -214)"/></g><g transform="translate(35.624 55.208)"><path class="a" d="M212.449,296H193.8a2.8,2.8,0,0,0-2.8,2.8v7.647a2.8,2.8,0,0,0,2.8,2.8h18.651a2.8,2.8,0,0,0,2.8-2.8V298.8A2.8,2.8,0,0,0,212.449,296Zm-2.8,7.647H196.6V301.6h13.056Z" transform="translate(-191 -296)"/></g><g transform="translate(9.326 70.502)"><path class="a" d="M60.445,378H52.8a2.8,2.8,0,0,0-2.8,2.8v7.647a2.8,2.8,0,0,0,2.8,2.8h7.647a2.8,2.8,0,0,0,2.8-2.8V380.8A2.8,2.8,0,0,0,60.445,378Zm-2.8,7.647H55.6V383.6h2.052Z" transform="translate(-50 -378)"/></g><path class="a" d="M92.7,15.294H69.2V2.8A2.8,2.8,0,0,0,66.4,0H29.1a2.8,2.8,0,0,0-2.8,2.8v12.5H2.8a2.8,2.8,0,0,0-2.8,2.8V92.7a2.8,2.8,0,0,0,2.8,2.8H92.7a2.8,2.8,0,0,0,2.8-2.8V18.092A2.8,2.8,0,0,0,92.7,15.294ZM26.3,89.9H5.6V20.89H26.3Zm26.112,0H43.085V76.1H52.41ZM63.6,18.092V89.9h-5.6V73.3a2.8,2.8,0,0,0-2.8-2.8H40.287a2.8,2.8,0,0,0-2.8,2.8V89.9h-5.6V5.6H63.6ZM89.9,89.9H69.2V20.89H89.9Z"/><g transform="translate(72.927 24.62)"><path class="a" d="M401.445,132H393.8a2.8,2.8,0,0,0-2.8,2.8v7.647a2.8,2.8,0,0,0,2.8,2.8h7.647a2.8,2.8,0,0,0,2.8-2.8V134.8A2.8,2.8,0,0,0,401.445,132Zm-2.8,7.647H396.6V137.6h2.052Z" transform="translate(-391 -132)"/></g><g transform="translate(72.927 39.914)"><path class="a" d="M401.445,214H393.8a2.8,2.8,0,0,0-2.8,2.8v7.647a2.8,2.8,0,0,0,2.8,2.8h7.647a2.8,2.8,0,0,0,2.8-2.8V216.8A2.8,2.8,0,0,0,401.445,214Zm-2.8,7.647H396.6V219.6h2.052Z" transform="translate(-391 -214)"/></g><g transform="translate(72.927 55.208)"><path class="a" d="M401.445,296H393.8a2.8,2.8,0,0,0-2.8,2.8v7.647a2.8,2.8,0,0,0,2.8,2.8h7.647a2.8,2.8,0,0,0,2.8-2.8V298.8A2.8,2.8,0,0,0,401.445,296Zm-2.8,7.647H396.6V301.6h2.052Z" transform="translate(-391 -296)"/></g><g transform="translate(72.927 70.502)"><path class="a" d="M401.445,378H393.8a2.8,2.8,0,0,0-2.8,2.8v7.647a2.8,2.8,0,0,0,2.8,2.8h7.647a2.8,2.8,0,0,0,2.8-2.8V380.8A2.8,2.8,0,0,0,401.445,378Zm-2.8,7.647H396.6V383.6h2.052Z" transform="translate(-391 -378)"/></g></svg>