<svg xmlns="http://www.w3.org/2000/svg" width="15.766" height="17.063" viewBox="0 0 15.766 17.063">
  <path id="Union_3" data-name="Union 3" d="M16.77,14.821V13.87h0V7.1L10.332,13.91a2.434,2.434,0,0,1-.313.394L8.494,15.862q-.045.046-.092.089l-.086.091-.007-.01a1.925,1.925,0,0,1-2.679-.08,2.234,2.234,0,0,1,.185-3.023L5.9,12.84l0-.006L14.25,4.3H10a2.1,2.1,0,0,1-.3.021H7.583a2.1,2.1,0,0,1-.3-.021H7.248V4.293A2.149,2.149,0,0,1,5.463,2.16,2.149,2.149,0,0,1,7.248.027V0h13.63V12.349a2.251,2.251,0,0,1,.012.231v2.241a2.232,2.232,0,0,1-2.145,2.242A2.1,2.1,0,0,1,16.77,14.821Z" transform="translate(-5.124)" fill="#02b9ef"/>
</svg>
