<svg xmlns="http://www.w3.org/2000/svg" width="29.32" height="29.26" viewBox="0 0 29.32 29.26"><defs><style>.a{fill:#7d8a92;}</style></defs><g transform="translate(0 0)"><g transform="translate(8.155 7.437)"><path class="a" d="M263.887,190.735a.857.857,0,1,0,.5.888A.865.865,0,0,0,263.887,190.735Z" transform="translate(-255.827 -187.234)"/><path class="a" d="M202.74,191.805a.857.857,0,1,0,.263-.951A.864.864,0,0,0,202.74,191.805Z" transform="translate(-199.262 -187.232)"/><path class="a" d="M143.548,192.374a.858.858,0,1,0-.807-.569A.866.866,0,0,0,143.548,192.374Z" transform="translate(-142.692 -187.232)"/><path class="a" d="M263.891,130.733a.857.857,0,1,0,.5.888A.865.865,0,0,0,263.891,130.733Z" transform="translate(-255.831 -130.661)"/><path class="a" d="M203.547,132.374a.858.858,0,1,0-.806-.569A.866.866,0,0,0,203.547,132.374Z" transform="translate(-199.263 -130.661)"/><path class="a" d="M143.547,132.374a.858.858,0,1,0-.807-.569A.866.866,0,0,0,143.547,132.374Z" transform="translate(-142.692 -130.662)"/></g><g transform="translate(0 0)"><path class="a" d="M33.688,376.422h-.016v.649a4.707,4.707,0,0,0,4.707,4.707h1.182a.856.856,0,0,0-.007.1v1.459a.857.857,0,1,0,1.714,0v-1.459a.856.856,0,0,0-.007-.1h10.29a.856.856,0,0,0-.007.1v1.459a.857.857,0,1,0,1.714,0v-1.459a.868.868,0,0,0-.007-.1h1.182a4.707,4.707,0,0,0,4.707-4.707v-.649H33.688Z" transform="translate(-31.748 -354.94)"/><path class="a" d="M27.379,16.409H3.467V4.288A2.053,2.053,0,0,1,5.518,2.237H7.4a1.111,1.111,0,0,1,.831.374L9.4,3.927l.02.02v.625H8.843a.857.857,0,1,0,0,1.714h7.092a.857.857,0,0,0,0-1.714h-.571V3.5a2.974,2.974,0,0,0-5.479-1.6l-.373-.42A2.827,2.827,0,0,0,7.4.523H5.518A3.77,3.77,0,0,0,1.753,4.288v12.13a1.941,1.941,0,0,0,.188,3.872H27.379a1.941,1.941,0,0,0,0-3.882Z" transform="translate(0 -0.523)"/></g></g></svg>