<svg xmlns="http://www.w3.org/2000/svg" width="34.16" height="24.242" viewBox="0 0 34.16 24.242"><defs><style>.a{fill:#02b9ef;}</style></defs><g transform="translate(0)"><g transform="translate(1.653 12.121)"><path class="a" d="M450.2,384v2.755h-1.653L448,384Z" transform="translate(-419.35 -375.185)"/><path class="a" d="M34.2,384l-.551,2.755H32V384Z" transform="translate(-32 -375.185)"/><path class="a" d="M62.854,257.653v4.959H32v-4.959A1.653,1.653,0,0,1,33.653,256H61.2A1.653,1.653,0,0,1,62.854,257.653Z" transform="translate(-32 -256)"/></g><path class="a" d="M41.609,98.182h-.551V93.774a2.207,2.207,0,0,0-2.2-2.2V82.2a2.207,2.207,0,0,0-2.2-2.2H13.51a2.207,2.207,0,0,0-2.2,2.2V91.57a2.207,2.207,0,0,0-2.2,2.2v4.408H8.551A.551.551,0,0,0,8,98.733v2.2a.551.551,0,0,0,.551.551H9.1v2.2a.551.551,0,0,0,.551.551h1.653a.55.55,0,0,0,.54-.443l.463-2.312H37.851l.463,2.312a.55.55,0,0,0,.54.443h1.653a.551.551,0,0,0,.551-.551v-2.2h.551a.551.551,0,0,0,.551-.551v-2.2A.551.551,0,0,0,41.609,98.182ZM12.408,82.2a1.1,1.1,0,0,1,1.1-1.1H36.65a1.1,1.1,0,0,1,1.1,1.1V91.57h-1.1v-2.2a2.207,2.207,0,0,0-2.2-2.2H27.835a2.207,2.207,0,0,0-2.2,2.2v2.2h-1.1v-2.2a2.207,2.207,0,0,0-2.2-2.2H15.713a2.207,2.207,0,0,0-2.2,2.2v2.2h-1.1Zm23.14,7.162v2.2H26.733v-2.2a1.1,1.1,0,0,1,1.1-1.1h6.612a1.1,1.1,0,0,1,1.1,1.1Zm-12.121,0v2.2H14.612v-2.2a1.1,1.1,0,0,1,1.1-1.1h6.612A1.1,1.1,0,0,1,23.427,89.366ZM10.2,93.774a1.1,1.1,0,0,1,1.1-1.1H38.854a1.1,1.1,0,0,1,1.1,1.1v4.408H10.2Zm.65,9.366H10.2v-1.653h.981Zm29.1,0h-.65l-.331-1.653h.981Zm1.1-2.755H9.1v-1.1H41.058Z" transform="translate(-8 -80)"/></g></svg>