<svg xmlns="http://www.w3.org/2000/svg" width="31.55" height="28.901" viewBox="0 0 31.55 28.901"><defs><style>.a{fill:#6b6e71;}</style></defs><g transform="translate(0 5.191)"><path class="a" d="M11.076,79.169c-1.3-.981-3.469-2.476-3.49-2.491l-.02-.014a1.574,1.574,0,0,0-.954-.32,1.593,1.593,0,0,0-1.046.391l-.015.012-.006.006-.012.013a1.564,1.564,0,0,0-.466,1.079,2.13,2.13,0,0,0,.912,1.408l.01.008,2.868,2.047a.577.577,0,1,1-.67.938L5.3,80.186l-.023-.017a3.1,3.1,0,0,1-1.365-2.306A2.593,2.593,0,0,1,4.5,76.2a.24.24,0,0,0,.049-.181l-.913-6.627a1.826,1.826,0,0,0-3.617.5L1.459,80.35a1.819,1.819,0,0,0,.648,1.16l5.215,4.295a.575.575,0,0,1,.21.449L7.5,91.283a.24.24,0,0,0,.24.242h5.243a.24.24,0,0,0,.24-.24V83.9C13.223,80.785,12.228,80.036,11.076,79.169Z" transform="translate(0 -67.815)"/><path class="a" d="M203.587,68.54a1.814,1.814,0,0,0-1.206-.706,1.857,1.857,0,0,0-.252-.017,1.831,1.831,0,0,0-1.805,1.577l-.913,6.627a.241.241,0,0,0,.049.181,2.593,2.593,0,0,1,.585,1.663,3.1,3.1,0,0,1-1.365,2.306l-.023.018-2.885,2.059a.572.572,0,0,1-.334.107.577.577,0,0,1-.336-1.046l2.868-2.047.01-.008a2.13,2.13,0,0,0,.912-1.407,1.556,1.556,0,0,0-2.5-1.181l-.02.014c-.021.015-2.188,1.51-3.49,2.491-1.152.868-2.147,1.617-2.147,4.728v7.388a.24.24,0,0,0,.24.24h5.245a.24.24,0,0,0,.241-.24.25.25,0,0,0,0-.032l-.032-5a.574.574,0,0,1,.21-.449l5.215-4.295a1.82,1.82,0,0,0,.648-1.16l1.441-10.461A1.814,1.814,0,0,0,203.587,68.54Z" transform="translate(-172.408 -67.817)"/></g><path class="a" d="M93.359,27.747l.02,0c.022,0,.043-.009.064-.015l.008,0c.024-.007.047-.014.069-.023h0l.031-.012,6.689-2.574a.817.817,0,0,0,.523-.763l0-7.087a.817.817,0,0,0-.354-.673.83.83,0,0,0-.106-.06c-.025-.013-.05-.025-.077-.035l-6.718-2.657a.817.817,0,0,0-.6,0l-6.683,2.677a.828.828,0,0,0-.538.769l0,7.087a.817.817,0,0,0,.526.764l6.731,2.564.039.013.019.006a.825.825,0,0,0,.1.023l.021,0a.813.813,0,0,0,.109.008h.024l.054,0Zm-.15-12.266,4.49,1.776-4.483,1.723L88.74,17.272Z" transform="translate(-77.448 -13.786)"/></svg>