<svg xmlns="http://www.w3.org/2000/svg" width="20.169" height="20.169" viewBox="0 0 20.169 20.169"><defs><style>.a{fill:#777b7b;}</style></defs><circle class="a" cx="1" cy="1" r="1" transform="translate(14.552 6.552)"/><path class="a" d="M17.017,1.576H15.993V.788a.788.788,0,0,0-1.576,0v.788H10.833V.788a.788.788,0,0,0-1.576,0v.788H5.712V.788a.788.788,0,1,0-1.576,0v.788H3.151A3.155,3.155,0,0,0,0,4.727v12.29a3.155,3.155,0,0,0,3.151,3.151H9.178a.788.788,0,1,0,0-1.576H3.151a1.577,1.577,0,0,1-1.576-1.576V4.727A1.577,1.577,0,0,1,3.151,3.151h.985v.788a.788.788,0,1,0,1.576,0V3.151H9.257v.788a.788.788,0,1,0,1.576,0V3.151h3.585v.788a.788.788,0,1,0,1.576,0V3.151h1.024a1.577,1.577,0,0,1,1.576,1.576V9.218a.788.788,0,1,0,1.576,0V4.727A3.155,3.155,0,0,0,17.017,1.576Z"/><path class="a" d="M274.766,270a4.766,4.766,0,1,0,4.766,4.766A4.772,4.772,0,0,0,274.766,270Zm0,7.957a3.191,3.191,0,1,1,3.191-3.191A3.194,3.194,0,0,1,274.766,277.957Z" transform="translate(-259.364 -259.364)"/><path class="a" d="M372.93,331.615h-.355v-.827a.788.788,0,0,0-1.576,0V332.4a.788.788,0,0,0,.788.788h1.142a.788.788,0,0,0,0-1.576Z" transform="translate(-356.386 -317.001)"/><ellipse class="a" cx="0.5" cy="1" rx="0.5" ry="1" transform="translate(11.552 6.552)"/><ellipse class="a" cx="1" cy="0.5" rx="1" ry="0.5" transform="translate(6.552 11.552)"/><circle class="a" cx="1" cy="1" r="1" transform="translate(3.552 6.552)"/><ellipse class="a" cx="1" cy="0.5" rx="1" ry="0.5" transform="translate(3.552 11.552)"/><ellipse class="a" cx="1" cy="0.5" rx="1" ry="0.5" transform="translate(3.552 14.552)"/><ellipse class="a" cx="1" cy="0.5" rx="1" ry="0.5" transform="translate(6.552 14.552)"/><circle class="a" cx="1" cy="1" r="1" transform="translate(6.552 6.552)"/></svg>