<svg xmlns="http://www.w3.org/2000/svg" width="21.96" height="22.744" viewBox="0 0 21.96 22.744"><defs><style>.a{fill:#777b7b;}</style></defs><g transform="translate(-32 -24)"><path class="a" d="M68.391,106.431a.392.392,0,0,1-.392.392H48v.784H69.176V88h-.784Z" transform="translate(-15.216 -60.863)"/><path class="a" d="M52.391,168H32v14.117H52.391ZM41.8,177.019a2.353,2.353,0,1,1-4.706,0,.392.392,0,0,1,.784,0,1.569,1.569,0,1,0,1.569-1.569.392.392,0,0,1,0-.784,1.569,1.569,0,1,0-1.569-1.569.392.392,0,0,1-.784,0,2.353,2.353,0,1,1,3.652,1.961A2.353,2.353,0,0,1,41.8,177.019Zm5.49,0a2.353,2.353,0,1,1-4.706,0V173.1a2.353,2.353,0,1,1,4.706,0Z" transform="translate(0 -136.941)"/><path class="a" d="M265.569,240A1.57,1.57,0,0,0,264,241.569v3.921a1.569,1.569,0,0,0,3.137,0v-3.921A1.57,1.57,0,0,0,265.569,240Z" transform="translate(-220.628 -205.412)"/><path class="a" d="M48.47,26.353V25.176a.392.392,0,1,1,.784,0v.392h.784v-.392a1.176,1.176,0,1,0-2.353,0v1.176H45.333V25.176a.392.392,0,1,1,.784,0v.392H46.9v-.392a1.176,1.176,0,1,0-2.353,0v1.176H38.274V25.176a.392.392,0,1,1,.784,0v.392h.784v-.392a1.176,1.176,0,1,0-2.353,0v1.176H35.137V25.176a.392.392,0,1,1,.784,0v.392h.784v-.392a1.176,1.176,0,1,0-2.353,0v1.176H32v3.921H52.391V26.353Z"/></g></svg>