<svg xmlns="http://www.w3.org/2000/svg" width="31.998" height="31.998" viewBox="0 0 31.998 31.998"><defs><style>.a{fill:#4a4a4a;}</style></defs><path class="a" d="M13.749,0H1.25A1.25,1.25,0,0,0,0,1.25v12.5A1.25,1.25,0,0,0,1.25,15h12.5A1.25,1.25,0,0,0,15,13.749V1.25A1.25,1.25,0,0,0,13.749,0ZM12.5,12.5H2.5V2.5h10Zm18.727,4.595a1.25,1.25,0,0,0-1.362.271l-12.5,12.5A1.25,1.25,0,0,0,18.249,32h12.5A1.25,1.25,0,0,0,32,30.748v-12.5a1.25,1.25,0,0,0-.771-1.155ZM29.5,29.5H21.266L29.5,21.266ZM24.5,15A7.5,7.5,0,1,0,17,7.5,7.508,7.508,0,0,0,24.5,15Zm0-12.5a5,5,0,1,1-5,5A5.005,5.005,0,0,1,24.5,2.5ZM14.633,19.133,9.267,24.5l5.366,5.366a1.25,1.25,0,0,1-1.767,1.768L7.5,26.266,2.134,31.632A1.25,1.25,0,0,1,.366,29.864L5.732,24.5.366,19.133a1.25,1.25,0,1,1,1.767-1.768L7.5,22.731l5.366-5.366a1.25,1.25,0,1,1,1.767,1.768Zm0,0" transform="translate(0)"/></svg>