<svg xmlns="http://www.w3.org/2000/svg" width="23.395" height="23.395" viewBox="0 0 23.395 23.395"><defs><style>.a{fill:#777b7b;}</style></defs><g transform="translate(9.04 6.32)"><path class="a" d="M202.8,144.227a1.613,1.613,0,0,0-.621-.6,5.509,5.509,0,0,0-.8-.339,7.849,7.849,0,0,0-.81-.229,2.135,2.135,0,0,1-.634-.236.446.446,0,0,1-.256-.388.544.544,0,0,1,.256-.429,1.211,1.211,0,0,1,.741-.194,2.863,2.863,0,0,1,.947.178,2.936,2.936,0,0,0,.619.178.556.556,0,0,0,.477-.32,1.133,1.133,0,0,0,.192-.562q0-.384-.691-.655a3.964,3.964,0,0,0-1.051-.244v-1.377a.686.686,0,0,0-1.371,0v1.431a2.049,2.049,0,0,0-1.088.557,2.12,2.12,0,0,0-.612,1.521,1.553,1.553,0,0,0,.349,1.046,1.929,1.929,0,0,0,.847.582q.5.173.99.3a3.512,3.512,0,0,1,.84.319.588.588,0,0,1,.349.526q0,.6-1.052.6a2.574,2.574,0,0,1-.922-.149,4.072,4.072,0,0,1-.627-.292.823.823,0,0,0-.4-.143.527.527,0,0,0-.432.278.959.959,0,0,0-.187.534q0,.484.755.854a3.661,3.661,0,0,0,1.188.334v1.389a.686.686,0,0,0,1.371,0v-1.411a2.509,2.509,0,0,0,1.193-.507,1.9,1.9,0,0,0,.691-1.552A1.856,1.856,0,0,0,202.8,144.227Z" transform="translate(-197.853 -138.32)"/></g><path class="a" d="M19.969,3.426A11.7,11.7,0,0,0,3.426,19.969,11.7,11.7,0,0,0,19.969,3.426ZM19,19A10.326,10.326,0,0,1,4.4,4.4,10.326,10.326,0,1,1,19,19Z"/><g transform="translate(2.896 2.949)"><path class="a" d="M72.173,64.532a8.8,8.8,0,1,0,8.8,8.8A8.812,8.812,0,0,0,72.173,64.532Zm0,16.232a7.43,7.43,0,1,1,7.43-7.43A7.439,7.439,0,0,1,72.173,80.764Z" transform="translate(-63.371 -64.532)"/></g></svg>