<svg xmlns="http://www.w3.org/2000/svg" width="55.623" height="85.434" viewBox="0 0 55.623 85.434"><defs><style>.a{fill:#4a4a4a;}</style></defs><g transform="translate(-89.326 0)"><g transform="translate(106.884 44.294)"><path class="a" d="M201.062,265.452h-5.039a1.474,1.474,0,0,0,0,2.948h5.039a1.474,1.474,0,0,0,0-2.948Z" transform="translate(-194.549 -265.452)"/></g><g transform="translate(89.326 0)"><g transform="translate(0 0)"><path class="a" d="M143.476,4.279H121.733V1.474A1.474,1.474,0,0,0,119.879.05L90.42,7.905A1.474,1.474,0,0,0,89.326,9.33V14.09a1.474,1.474,0,0,0,2.948,0V10.462l26.511-7.07v78.77l-26.511-5.3v-57.8a1.474,1.474,0,0,0-2.948,0v59.01a1.473,1.473,0,0,0,1.185,1.445l29.459,5.892a1.474,1.474,0,0,0,1.763-1.445v-2.8h13.584a1.474,1.474,0,1,0,0-2.948H121.733V74h14.589a1.474,1.474,0,0,0,1.474-1.474V12.906a1.474,1.474,0,0,0-1.474-1.474H121.733V7.227H142v70.98h-2.1a1.474,1.474,0,1,0,0,2.948h3.577a1.474,1.474,0,0,0,1.474-1.474V5.753A1.474,1.474,0,0,0,143.476,4.279Zm-8.628,10.1V71.054H121.733V14.38Z" transform="translate(-89.326 0)"/></g></g></g></svg>