<svg xmlns="http://www.w3.org/2000/svg" width="15.766" height="17.063" viewBox="0 0 15.766 17.063">
  <path id="Union_5" data-name="Union 5" d="M11.646,2.242v.951h0V9.959L5.208,3.153a2.434,2.434,0,0,0-.313-.394L3.37,1.2q-.045-.046-.092-.089l-.086-.091-.007.01A1.925,1.925,0,0,0,.5,1.111,2.234,2.234,0,0,0,.69,4.134l.087.088,0,.006,8.353,8.535H4.876a2.1,2.1,0,0,0-.3-.021H2.459a2.1,2.1,0,0,0-.3.021H2.124v.006a2.167,2.167,0,0,0,0,4.267v.027h13.63V4.714a2.251,2.251,0,0,0,.012-.231V2.242A2.232,2.232,0,0,0,13.621,0,2.1,2.1,0,0,0,11.646,2.242Z" fill="#ff7c40"/>
</svg>
