<svg xmlns="http://www.w3.org/2000/svg" width="28.849" height="32.11" viewBox="0 0 28.849 32.11"><defs><style>.a{fill:#02b9ef;fill-rule:evenodd;}.b{fill:#3fd3ff;}</style></defs><g transform="translate(0.627 0.627)"><path class="a" d="M248.837,40.851V17.717h.254a.689.689,0,0,0,.594-1.032l-3.7-6.341a.687.687,0,0,0-1.192-.006l-3.677,6.3a.688.688,0,0,0,.569,1.075h.253V40.851Z" transform="translate(-228.142 -9.995)"/><path class="a" d="M152.9,321.676V309.611h-6.271a.629.629,0,0,0-.627.627v11.438Z" transform="translate(-139.099 -290.821)"/><path class="a" d="M42.9,394.786v-7.174H36.625a.629.629,0,0,0-.627.627v6.547Z" transform="translate(-35.998 -363.93)"/><path class="a" d="M366,206.111v18.556h6.9V206.738a.629.629,0,0,0-.627-.627Z" transform="translate(-345.302 -193.812)"/></g><g transform="translate(0 0)"><path class="b" d="M53.593,12.3H47.949V8.921a1.337,1.337,0,0,0,.285-.124A1.316,1.316,0,0,0,48.712,7L45.014.662A1.314,1.314,0,0,0,42.738.653L39.07,6.941a1.316,1.316,0,0,0,.727,1.98v2.139a.627.627,0,1,0,1.254,0V8.349a.627.627,0,0,0-.627-.627h-.253a.061.061,0,0,1-.061-.061.058.058,0,0,1,.01-.034l.024-.038,3.678-6.306a.059.059,0,0,1,.081-.022.056.056,0,0,1,.022.022l0,.008,3.7,6.34a.06.06,0,0,1-.022.081.06.06,0,0,1-.03.01h-.254a.627.627,0,0,0-.627.627V30.855H41.051V16.705a.627.627,0,0,0-1.254,0V18.79H34.152A1.256,1.256,0,0,0,32.9,20.044v3.637H27.253A1.256,1.256,0,0,0,26,24.936v6.546a.627.627,0,0,0,.627.627H54.221a.627.627,0,0,0,.627-.627V13.553A1.256,1.256,0,0,0,53.593,12.3ZM27.253,30.855V24.936H32.9v5.919Zm6.9,0V20.044H39.8V30.855Zm19.442,0H47.949v-17.3h5.644Z" transform="translate(-25.999 0)"/><path class="b" d="M246.625,212.62a.627.627,0,0,0,.627-.627h0a.627.627,0,1,0-.627.628Z" transform="translate(-232.201 -198.11)"/></g></svg>