<svg xmlns="http://www.w3.org/2000/svg" width="25.552" height="25.552" viewBox="0 0 25.552 25.552"><defs><style>.a{opacity:0.72;}.b{fill:#4a4a4a;}</style></defs><g class="a"><path class="b" d="M12.776,0A12.776,12.776,0,1,0,25.552,12.776,12.791,12.791,0,0,0,12.776,0Zm0,23.353A10.577,10.577,0,1,1,23.353,12.776,10.589,10.589,0,0,1,12.776,23.353Z" transform="translate(0)"/><path class="b" d="M42.082,33.07a9.012,9.012,0,1,0,9.012,9.012A9.022,9.022,0,0,0,42.082,33.07Zm3.173,7.305-.074.189H42.936v-.2a1.345,1.345,0,0,0-.206-.825.614.614,0,0,0-.511-.237.527.527,0,0,0-.452.18.839.839,0,0,0-.155.532.778.778,0,0,0,.167.525,2.094,2.094,0,0,0,.724.454,7.491,7.491,0,0,1,2.033,1.182,2.286,2.286,0,0,1,.695,1.782,2.378,2.378,0,0,1-.722,1.768,3,3,0,0,1-1.686.759v1.366H41.57V46.477a3.052,3.052,0,0,1-1.807-.818,2.684,2.684,0,0,1-.792-2.134l.005-.046.1-.184h2.156v.2a1.262,1.262,0,0,0,.293.9.963.963,0,0,0,.7.26.623.623,0,0,0,.492-.178.74.74,0,0,0,.168-.511.869.869,0,0,0-.173-.584,2.085,2.085,0,0,0-.718-.447,7.089,7.089,0,0,1-2.055-1.142,2.628,2.628,0,0,1-.017-3.554,3.227,3.227,0,0,1,1.648-.774V36.239h1.366V37.5a3.163,3.163,0,0,1,1.644.9,2.823,2.823,0,0,1,.665,1.939Z" transform="translate(-29.306 -29.306)"/></g></svg>