<svg xmlns="http://www.w3.org/2000/svg" width="32.085" height="29" viewBox="0 0 32.085 29"><defs><style>.a{fill:#02b9ef;}</style></defs><g transform="translate(12.032 17.277)"><path class="a" d="M193.543,300.308h-1.234a.309.309,0,0,0-.309.309v1.543h1.543a.309.309,0,0,0,.309-.309v-1.234A.309.309,0,0,0,193.543,300.308Z" transform="translate(-192 -300.308)"/></g><g transform="translate(5.862 17.277)"><path class="a" d="M95.082,300.308H93.848a.309.309,0,0,0-.309.309v4.936a.309.309,0,0,0,.309.308h1.234a.309.309,0,0,0,.309-.308v-4.936A.309.309,0,0,0,95.082,300.308Z" transform="translate(-93.539 -300.308)"/></g><g transform="translate(0 0)"><path class="a" d="M29.308,35.721H26.224l-7.5-5.642a3.394,3.394,0,1,0-5.371,0l-7.5,5.642H2.777A2.78,2.78,0,0,0,0,38.5v12.34a2.78,2.78,0,0,0,2.777,2.777H29.309a2.78,2.78,0,0,0,2.777-2.777V38.5A2.78,2.78,0,0,0,29.308,35.721Zm-14.38-4.508a3.382,3.382,0,0,0,2.228,0l5.99,4.508H8.939ZM9.564,47.136A2.162,2.162,0,0,1,7.4,49.3H6.17a2.162,2.162,0,0,1-2.16-2.16V42.2a2.162,2.162,0,0,1,2.16-2.16H7.4a2.162,2.162,0,0,1,2.16,2.16Zm6.17-3.7a2.162,2.162,0,0,1-2.16,2.16H12.032V48.37a.926.926,0,0,1-1.851,0V42.2a2.162,2.162,0,0,1,2.16-2.16h1.234a2.162,2.162,0,0,1,2.16,2.16v1.234Zm4.011.309a.926.926,0,1,1,0,1.851H18.2v1.851h2.777a.926.926,0,1,1,0,1.851h-3.7a.926.926,0,0,1-.926-.926v-7.4a.926.926,0,0,1,.926-.926h3.7a.926.926,0,1,1,0,1.851H18.2v1.851h1.543Zm8.33,4.628a.926.926,0,0,1-1.753.414l-1.949-3.9V48.37a.926.926,0,0,1-1.851,0v-7.4a.926.926,0,0,1,1.753-.414l1.949,3.9V40.966a.926.926,0,0,1,1.851,0Z" transform="translate(0 -24.615)"/></g></svg>