<svg xmlns="http://www.w3.org/2000/svg" width="22.767" height="22.807" viewBox="0 0 22.767 22.807"><defs><style>.a{fill:none;stroke:#b4b3b6;stroke-linecap:round;stroke-linejoin:round;stroke-width:2px;}</style></defs><path class="a" d="M14.909,4.957a4.946,4.946,0,0,1,3.907,3.907M14.909,1a8.9,8.9,0,0,1,7.864,7.854m-.989,7.893v2.967a1.978,1.978,0,0,1-2.156,1.978,19.575,19.575,0,0,1-8.536-3.037,19.288,19.288,0,0,1-5.935-5.935A19.575,19.575,0,0,1,2.12,4.145,1.978,1.978,0,0,1,4.088,1.989H7.056a1.978,1.978,0,0,1,1.978,1.7A12.7,12.7,0,0,0,9.726,6.47a1.978,1.978,0,0,1-.445,2.087L8.025,9.813a15.826,15.826,0,0,0,5.935,5.935l1.256-1.256a1.978,1.978,0,0,1,2.087-.445,12.7,12.7,0,0,0,2.779.692,1.978,1.978,0,0,1,1.7,2.008Z" transform="translate(-1.111 0.104)"/></svg>