<svg xmlns="http://www.w3.org/2000/svg" width="17.359" height="24.688" viewBox="0 0 17.359 24.688"><defs><style>.a{opacity:0.72;}.b{fill:#4a4a4a;}</style></defs><g class="a" transform="translate(-0.001 0)"><g transform="translate(5.787 5.786)"><g transform="translate(0)"><path class="b" d="M198.893,120a2.893,2.893,0,1,0,2.893,2.893A2.9,2.9,0,0,0,198.893,120Z" transform="translate(-196 -120)"/></g></g><g transform="translate(0.001 0)"><path class="b" d="M84.68,0a8.682,8.682,0,0,0-7.385,13.243l6.89,11.1a.724.724,0,0,0,1.236-.01l6.715-11.21A8.682,8.682,0,0,0,84.68,0Zm0,13.029A4.349,4.349,0,1,1,89.029,8.68,4.351,4.351,0,0,1,84.68,13.029Z" transform="translate(-76)"/></g></g></svg>