<svg xmlns="http://www.w3.org/2000/svg" width="18.233" height="25.931" viewBox="0 0 18.233 25.931"><defs><style>.a{fill:#02b9ef;}</style></defs><g transform="translate(-76)"><g transform="translate(82.078 6.078)"><g transform="translate(0)"><path class="a" d="M199.039,120a3.039,3.039,0,1,0,3.039,3.039A3.042,3.042,0,0,0,199.039,120Z" transform="translate(-196 -120)"/></g></g><g transform="translate(76)"><g transform="translate(0)"><path class="a" d="M85.116,0A9.119,9.119,0,0,0,77.36,13.91L84.6,25.572a.76.76,0,0,0,1.3-.01l7.052-11.775A9.119,9.119,0,0,0,85.116,0Zm0,13.685a4.568,4.568,0,1,1,4.568-4.568A4.57,4.57,0,0,1,85.116,13.685Z" transform="translate(-76)"/></g></g></g></svg>