<?xml version="1.0" encoding="utf-8"?>
<!-- Generator: Adobe Illustrator 21.1.0, SVG Export Plug-In . SVG Version: 6.00 Build 0)  -->
<svg version="1.1" id="Layer_1" xmlns="http://www.w3.org/2000/svg" xmlns:xlink="http://www.w3.org/1999/xlink" x="0px" y="0px"
	 viewBox="0 0 1080 1080" style="enable-background:new 0 0 1080 1080;" xml:space="preserve">
<style type="text/css">
	.st0{display:none;fill:#FDFDFD;}
	.st1{fill:#00B8ED;}
	.st2{fill:#01B8ED;}
	.st3{fill:#01B9ED;}
	.st4{display:none;fill:#FDFEFE;}
	.st5{display:none;fill:#FFFFFF;}
	.st6{display:none;fill:#FEFEFE;}
</style>
<g>
	<path class="st0" d="M1211.6,583.7c0,220.9,0,441.8,0.2,662.7c0,6.7-1.5,8.3-8.3,8.3c-442.4-0.2-884.7-0.2-1327.1,0
		c-6.7,0-8.3-1.5-8.3-8.3c0.2-442.4,0.2-884.7,0-1327.1c0-6.7,1.5-8.3,8.3-8.3c442.4,0.2,884.7,0.2,1327.1,0c6.7,0,8.3,1.5,8.3,8.3
		C1211.6,140.8,1211.6,362.3,1211.6,583.7z"/>
	<path class="st1" d="M734.5,600.2c17.8,0,34,0.4,50.1-0.2c7.4-0.3,7.1,3.6,7.4,8.8c0.3,6.1-1.9,7.5-7.7,7.4
		c-19.2-0.3-38.4,0.1-57.5-0.3c-5.5-0.1-8.6,1.6-11.2,6.5c-8.9,16.6-18.8,32.7-27.2,49.6c-3.5,7-6.9,6.1-12.4,3.8
		c-33.2-13.6-66.6-26.6-99.7-40.6c-8.1-3.4-14.3-2.9-21.8,1.2c-22.9,12.3-46.2,23.9-69.4,35.9c-3.1,1.6-6,4.4-8.8-0.7
		c-3.2-6,2.6-5.7,5-7c27.3-14.3,54.8-28.2,82-42.7c3.6-1.9,5.7-1,8.9,0.3c33.8,13.7,67.7,27.2,101.4,41.1c4.9,2,6.7,0.5,9-3.5
		c28.3-49.3,53.2-100.4,79.2-150.9c2.8-5.5,1.2-6.5-4.2-6.4c-13.5,0.2-27-0.3-40.4,0.2c-6.8,0.3-7.5-2.6-7.7-8.3
		c-0.2-6.4,1.8-8,8-7.9c18.3,0.4,36.6,0,54.8,0.3c5.1,0.1,8-1.4,10.5-6c8.5-15.8,17.7-31.3,26-47.2c3.5-6.7,7.3-10,15.4-5.1
		C792.1,483.6,765.3,541.8,734.5,600.2z"/>
	<path class="st1" d="M381,562.7c-2.3-3.6-3.8-5.6,1.9-8.4c15.1-7.4,21.8-22.5,19.2-39.9c-2.3-15.1-12.7-24.8-29.8-27.9
		c-14-2.6-28-1.2-42-0.5c-5.9,0.3-7.4,2-7.4,7.7c0.2,38.3,0.3,76.6,0,114.9c-0.1,6.8,2.5,8,8.3,7.5c5-0.4,10,1.1,9.5-7.3
		c-0.7-14-0.2-28.1-0.1-42.2c0-2.2-0.9-4.9,2-6.3c5-2.5,17.1,1.2,20.3,6.2c7.3,11.6,15.6,22.8,21.7,35.1
		c6.3,12.6,14.7,17.9,29.6,13.3C403.1,597.4,392.1,580,381,562.7z M341.1,544c-1.5-0.7-2.2-1.8-2.5-2.9c-0.8-0.8-1.3-1.9-1.3-3.4
		v-31.3c-0.7-2.9,0.9-6.4,4.7-6.4c11.5,0,23.8-0.7,34.7,3.6c9.4,3.7,16.8,12,14,22.7c-2.4,9.3-12.1,13.5-20.3,16.4
		C361.5,545.9,350.1,548.3,341.1,544z"/>
	<path class="st2" d="M262.4,520c-0.5-15.7-10.6-27-28.3-31.4c-15-3.7-30.2-3.3-45.5-2.5c-5.9,0.3-6.8,2.4-6.8,7.5
		c0.2,19.2,0.1,38.3,0.1,57.5s0.3,38.3-0.2,57.5c-0.2,6.8,2.5,8.1,8.4,7.6c5-0.4,10,1.2,9.5-7.3c-0.8-11.9-0.1-23.9-0.2-35.9
		c-0.1-4.5,1.1-6.3,6.2-5.9c10.2,0.8,20.3,0.3,30.2-2.9C255.2,557.9,263.3,544.6,262.4,520z M231.4,546.2c-8.7,4.6-18,5.2-27.6,5.1
		c0,0,0,0-0.1,0c-2.5,0-5-1.6-5-4.8v-40.3c0-4.4,4.6-5.8,7.5-4.2c8.7,0.1,16.9,0.3,24.9,4.7c6.9,3.8,12.6,10.6,13.2,18.6
		C245.1,534.4,239.1,542.2,231.4,546.2z"/>
	<path class="st3" d="M867.1,551.4c0-19.2,0.4-38.4-0.2-57.5c-0.3-8.4,4.6-6.9,9.6-7.3c5.9-0.5,8.4,0.8,8.3,7.6
		c-0.4,30.9-0.2,61.7-0.2,92.6c0,13.5,0,13.5,14,13.5c12.9,0,25.8,0.3,38.6-0.1c6.6-0.2,6.4,3.5,6.2,7.9c-0.2,4,1.3,8.3-5.8,8.2
		c-21.6-0.4-43.1-0.3-64.7,0c-6,0.1-5.9-3.1-5.9-7.3C867.2,589.7,867.1,570.6,867.1,551.4z"/>
	<path class="st1" d="M564.3,534.8c0,25.2,0.1,48.5-0.1,71.8c0,2.9,2.4,7.6-4,7.8c-7,0.3-4.8-4.7-4.8-8c-0.1-24.5-0.2-49.1,0-73.6
		c0-5.1-1.2-8.9-5-12.6c-11.3-10.7-22.4-21.7-33.1-33c-4.3-4.6-6.9-5.8-11.8-0.4c-9.9,10.8-24.4,19.3-29.8,31.8
		c-1,2.4-1.3,31-1.3,42.5c0,15.6,0,31.1,0,46.7c0,3.1,1,6.6-4.5,6.6c-5.5,0-4.4-3.6-4.4-6.7c0-23.4,0-46.7-0.1-70.1
		c0-2.8,0.9-5.8-2.2-11.3c-3,4.1-5.2,7.7-8,10.6c-2.3,2.4-4.4,7.7-9.2,3.2c-5-4.6,0.3-6.8,2.7-9.2c17.1-17.2,34.3-34.3,51.5-51.4
		c11.1-11.1,11.1-11.2,22.1-0.2c16.7,16.7,33.6,33.2,50.1,50.1c2.3,2.4,9.1,4.1,4.8,9.2C572.8,543.8,569.1,538.8,564.3,534.8z"/>
	<path class="st3" d="M625.4,551.5c0-19.5,0.4-39-0.2-58.4c-0.2-7.5,3.9-6.7,8.4-6.4c4.2,0.3,9.7-2.4,9.6,6.2
		c-0.3,39-0.4,77.9,0,116.9c0.1,8.3-5,6.3-9.4,6.4c-4.2,0.1-8.8,1.6-8.6-6.2C625.8,590.5,625.4,571,625.4,551.5z"/>
	<path class="st4" d="M199.5,525.8c0-3,0-6,0-9c0-15.5,0-15.5,15.8-14.7c22.3,1.1,32.8,13.5,27.3,31.9
		c-3.3,11.2-12.1,14.8-22.3,16.6c-18.2,3.2-20.8,1.1-20.8-16.7C199.5,531.2,199.5,528.5,199.5,525.8z"/>
</g>
<line class="st5" x1="530.9" y1="534.2" x2="530.9" y2="533.7"/>
<g>
	<path class="st6" d="M813.4,451.7c-29.6,0-59.1,0-88.7,0c-0.9,0-1.1-0.2-1.1-1.1c0-59,0-118.1,0-177.1c0-0.9,0.2-1.1,1.1-1.1
		c59.1,0,118.2,0,177.4,0c0.9,0,1.1,0.2,1.1,1.1c0,59,0,118.1,0,177.1c0,0.9-0.2,1.1-1.1,1.1C872.5,451.7,842.9,451.7,813.4,451.7z"
		/>
	<path class="st1" d="M793.8,430.7c-0.4-0.3-0.6-0.7-0.6-1.3c-0.1-0.6,0.4-0.9,0.8-1.1c1.2-0.8,2.4-1.6,3.5-2.4
		c2.5-1.7,4.9-3.3,7.4-5c2.5-1.7,5-3.3,7.4-5c2.8-1.9,5.6-3.8,8.4-5.7c2.1-1.4,4.2-2.8,6.3-4.3c1.2-0.8,2.5-1.7,3.7-2.5
		c0.4-0.3,0.9-0.3,1.4-0.2c0.4,0.1,0.6,0.5,0.7,0.8c0.2,0.6,0.1,1.2,0,1.8c-0.2,3.5-0.3,7-0.5,10.5c-0.2,3.6-0.4,7.2-0.6,10.8
		c-0.1,2.8-0.3,5.5-0.4,8.3c-0.2,3.2-0.3,6.3-0.5,9.5c-0.1,1.3-0.1,2.7-0.2,4c0,0.8-0.3,1.2-1.1,1.4c-0.7,0.2-1.2-0.1-1.5-0.8
		c-1-1.9-1.9-3.8-2.9-5.7c-1-1.9-2-3.8-2.9-5.8c-0.9-1.7-1.7-3.4-2.6-5.2c-0.6-1.2-1.2-2.5-1.9-3.7c-0.1-0.2-0.2-0.3-0.4-0.2
		c-1.9,0.2-3.8,0.3-5.7,0.4c-2.6,0.2-5.2,0.4-7.8,0.5c-2.2,0.2-4.4,0.3-6.6,0.5c-0.9,0.1-1.8,0.1-2.6,0.2
		C794.4,430.8,794,430.9,793.8,430.7z"/>
</g>
</svg>
