<svg xmlns="http://www.w3.org/2000/svg" width="102.22" height="102.205" viewBox="0 0 102.22 102.205"><g transform="translate(-860 -651)"><g transform="translate(858.998 649.991)"><path d="M54.19,12H41v9.892H54.19Zm-3.3,6.595H44.3V15.3h6.6Z" transform="translate(25.948 7.129)" fill="#4a4a4a"/><path d="M103.219,68.589,96.327,33.967h-6.3V23.793l3.715,2.653A4.946,4.946,0,1,0,99.5,18.4L76.415,1.913a5.017,5.017,0,0,0-5.746,0L47.59,18.4a4.942,4.942,0,0,0-1.152,6.9,5.084,5.084,0,0,0,6.9,1.146l3.719-2.658V33.967H41.21l-2.3-2.041a5.067,5.067,0,0,0-6.577,0L2.662,58.3a4.946,4.946,0,1,0,6.572,7.393l1.659-1.474v39H99.922V80.13h3.3Zm-9.6-31.325,6.3,31.488v1.485H60.353v-6.02l1.659,1.474A5.092,5.092,0,0,0,69,65.282a4.946,4.946,0,0,0-.411-6.981l-6.972-6.2H90.029V37.264ZM76.84,48.805H70.245V35.616H76.84ZM51.419,23.766a1.7,1.7,0,0,1-2.3-.381,1.638,1.638,0,0,1-.285-1.232,1.616,1.616,0,0,1,.669-1.07L72.585,4.6a1.677,1.677,0,0,1,1.914,0L97.582,21.089a1.643,1.643,0,0,1,.382,2.293,1.687,1.687,0,0,1-2.3.382L73.542,7.965Zm22.124-11.75,13.19,9.422V48.805h-6.6V32.318H66.948V48.805H60.353V21.437ZM57.056,37.264V48.052L44.92,37.264ZM7.043,63.228a1.693,1.693,0,0,1-2.33-.138,1.649,1.649,0,0,1,.138-2.326l29.677-26.38a1.645,1.645,0,0,1,2.193,0L66.4,60.766a1.652,1.652,0,0,1,.134,2.328,1.7,1.7,0,0,1-2.328.135L35.623,37.823Zm28.58-20.993L57.056,61.286v5.655H43.866V53.751H27.379v13.19H14.19V61.286Zm4.946,24.706H30.677V57.049h9.892Zm-26.379,3.3H57.056V99.915H37.271V80.13H17.487V99.915h-3.3ZM33.974,99.915H20.784V83.428h13.19Zm62.65,0H60.353V80.13H96.624ZM60.353,76.833v-3.3H99.922v3.3Z" fill="#4a4a4a"/><path d="M38.19,45H25V58.19H38.19Zm-3.3,9.892H28.3V48.3h6.6Z" transform="translate(15.569 28.535)" fill="#4a4a4a"/><path d="M52.19,64.19V51H39V64.19ZM42.3,54.3h6.6v6.6H42.3Z" transform="translate(24.65 32.428)" fill="#4a4a4a"/><path d="M62.19,51H49V64.19H62.19Zm-3.3,9.892H52.3V54.3h6.6Z" transform="translate(31.137 32.428)" fill="#4a4a4a"/></g><g transform="translate(886 703)" fill="#02b9ef" stroke="#0183a9" stroke-width="2"><rect width="17" height="14" stroke="none"/><rect x="1" y="1" width="15" height="12" fill="none"/></g><g transform="translate(938 733)" fill="#02b9ef" stroke="#0183a9" stroke-width="2"><rect width="15" height="14" stroke="none"/><rect x="1" y="1" width="13" height="12" fill="none"/></g><g transform="translate(922 733)" fill="#02b9ef" stroke="#0183a9" stroke-width="2"><rect width="15" height="14" stroke="none"/><rect x="1" y="1" width="13" height="12" fill="none"/></g><g transform="translate(899 723)" fill="#02b9ef" stroke="#0183a9" stroke-width="2"><rect width="15" height="14" stroke="none"/><rect x="1" y="1" width="13" height="12" fill="none"/></g><g transform="translate(876 730)" fill="#02b9ef" stroke="#0183a9" stroke-width="2"><rect width="21" height="20" stroke="none"/><rect x="1" y="1" width="19" height="18" fill="none"/></g><g transform="translate(926 669)" fill="#02b9ef" stroke="#0183a9" stroke-width="2"><rect width="14" height="10" stroke="none"/><rect x="1" y="1" width="12" height="8" fill="none"/></g><g transform="translate(926 682)" fill="#02b9ef" stroke="#0183a9" stroke-width="2"><rect width="14" height="17" stroke="none"/><rect x="1" y="1" width="12" height="15" fill="none"/></g></g></svg>