<svg xmlns="http://www.w3.org/2000/svg" width="134.109" height="103.94" viewBox="0 0 134.109 103.94"><defs><style>.a{fill:#fff;}.b{fill:#ececec;}.c{fill:#4a4a4a;}</style></defs><g transform="translate(3.597 1.966)"><path class="a" d="M217.378,165.1V90.425a3.372,3.372,0,0,0-.818-2.2l-19.7-22.864a1.144,1.144,0,0,0-1.468,0l-19.7,22.864a3.37,3.37,0,0,0-.818,2.2V165.1Z" transform="translate(-132.665 -65.094)"/><path class="b" d="M182.015,92.584a3.371,3.371,0,0,1,.818-2.2l17.794-20.65-3.767-4.372a1.144,1.144,0,0,0-1.468,0l-19.7,22.864a3.37,3.37,0,0,0-.818,2.2V165.1h7.143Z" transform="translate(-132.665 -65.094)"/><path class="a" d="M379.255,165.1V90.425a3.379,3.379,0,0,0-.814-2.2L358.823,65.361a1.135,1.135,0,0,0-1.462,0L337.742,88.225a3.38,3.38,0,0,0-.814,2.2V165.1Z" transform="translate(-252.273 -65.094)"/><path class="b" d="M344.04,92.584a3.379,3.379,0,0,1,.814-2.2l17.719-20.65-3.752-4.372a1.135,1.135,0,0,0-1.462,0L337.741,88.225a3.379,3.379,0,0,0-.814,2.2V165.1h7.113V92.584Z" transform="translate(-252.273 -65.094)"/><path class="a" d="M401.569,210.446H387.2a1.1,1.1,0,0,0-1.1,1.1v18.047a1.1,1.1,0,0,0,1.1,1.1h14.372a1.1,1.1,0,0,0,1.1-1.1V211.544A1.1,1.1,0,0,0,401.569,210.446Z" transform="translate(-288.565 -172.374)"/><path class="b" d="M392.56,229.591V211.544a1.1,1.1,0,0,1,1.1-1.1H387.2a1.1,1.1,0,0,0-1.1,1.1v18.047a1.1,1.1,0,0,0,1.1,1.1h6.461A1.1,1.1,0,0,1,392.56,229.591Z" transform="translate(-288.565 -172.374)"/><path class="b" d="M386.1,352.118h16.568v24.829H386.1Z" transform="translate(-288.565 -276.938)"/><path class="a" d="M386.1,352.118h7.559v24.829H386.1Z" transform="translate(-288.565 -276.938)"/><path class="b" d="M401.57,324.8H387.2a1.1,1.1,0,0,0-1.1,1.1v6.318h16.568V325.9A1.1,1.1,0,0,0,401.57,324.8Z" transform="translate(-288.566 -256.777)"/><path class="a" d="M394.756,324.8H387.2a1.1,1.1,0,0,0-1.1,1.1v6.318h7.559V325.9A1.1,1.1,0,0,1,394.756,324.8Z" transform="translate(-288.565 -256.777)"/><path class="a" d="M239.972,210.446H225.6a1.1,1.1,0,0,0-1.1,1.1v18.047a1.1,1.1,0,0,0,1.1,1.1h14.372a1.1,1.1,0,0,0,1.1-1.1V211.544A1.1,1.1,0,0,0,239.972,210.446Z" transform="translate(-169.295 -172.374)"/><path class="b" d="M230.962,229.591V211.544a1.1,1.1,0,0,1,1.1-1.1H225.6a1.1,1.1,0,0,0-1.1,1.1v18.047a1.1,1.1,0,0,0,1.1,1.1h6.461A1.1,1.1,0,0,1,230.962,229.591Z" transform="translate(-169.295 -172.374)"/><path class="b" d="M224.5,352.118H241.07v24.829H224.5Z" transform="translate(-169.295 -276.938)"/><path class="a" d="M224.5,352.118h7.559v24.829H224.5Z" transform="translate(-169.295 -276.938)"/><path class="b" d="M239.973,324.8H225.6a1.1,1.1,0,0,0-1.1,1.1v6.318h16.568V325.9A1.1,1.1,0,0,0,239.973,324.8Z" transform="translate(-169.296 -256.777)"/><path class="a" d="M233.159,324.8H225.6a1.1,1.1,0,0,0-1.1,1.1v6.318h7.559V325.9A1.1,1.1,0,0,1,233.159,324.8Z" transform="translate(-169.295 -256.777)"/><path class="a" d="M56.061,165.1V90.425a3.379,3.379,0,0,0-.814-2.2L35.629,65.361a1.135,1.135,0,0,0-1.462,0L14.548,88.225a3.379,3.379,0,0,0-.814,2.2V165.1Z" transform="translate(-13.734 -65.094)"/><path class="b" d="M20.847,92.584a3.379,3.379,0,0,1,.814-2.2L39.38,69.734l-3.751-4.372a1.135,1.135,0,0,0-1.462,0L14.548,88.226a3.379,3.379,0,0,0-.814,2.2v74.679h7.113Z" transform="translate(-13.734 -65.095)"/><path class="a" d="M78.375,210.446H64a1.1,1.1,0,0,0-1.1,1.1v18.047a1.1,1.1,0,0,0,1.1,1.1H78.375a1.1,1.1,0,0,0,1.1-1.1V211.544A1.1,1.1,0,0,0,78.375,210.446Z" transform="translate(-50.026 -172.374)"/><path class="b" d="M69.366,229.591V211.544a1.1,1.1,0,0,1,1.1-1.1H64a1.1,1.1,0,0,0-1.1,1.1v18.047a1.1,1.1,0,0,0,1.1,1.1h6.461A1.1,1.1,0,0,1,69.366,229.591Z" transform="translate(-50.026 -172.374)"/><path class="b" d="M62.9,352.118H79.473v24.829H62.9Z" transform="translate(-50.026 -276.938)"/><path class="a" d="M62.9,352.118h7.559v24.829H62.9Z" transform="translate(-50.026 -276.938)"/><path class="b" d="M78.375,324.8H64a1.1,1.1,0,0,0-1.1,1.1v6.318H79.473V325.9A1.1,1.1,0,0,0,78.375,324.8Z" transform="translate(-50.026 -256.777)"/><path class="a" d="M71.562,324.8H64a1.1,1.1,0,0,0-1.1,1.1v6.318h7.559V325.9A1.1,1.1,0,0,1,71.562,324.8Z" transform="translate(-50.026 -256.777)"/></g><g transform="translate(0 0)"><path class="c" d="M72.711,202.946H58.339a3.066,3.066,0,0,0-3.062,3.063v18.046a3.066,3.066,0,0,0,3.062,3.062H72.711a3.066,3.066,0,0,0,3.062-3.062V206.008A3.066,3.066,0,0,0,72.711,202.946Zm-9.151,20.243H59.206V217h4.355Zm0-10.121H59.206v-6.192h4.355Zm8.284,10.121H67.49V217h4.355Zm0-10.121H67.49v-6.192h4.355Z" transform="translate(-40.798 -164.872)"/><path class="c" d="M91.777,393.577h1.566a1.964,1.964,0,1,0,0-3.929H91.777a1.964,1.964,0,1,0,0,3.929Z" transform="translate(-66.288 -302.672)"/><path class="c" d="M219.936,202.946a3.066,3.066,0,0,0-3.062,3.063v18.046a3.066,3.066,0,0,0,3.062,3.062h14.372a3.066,3.066,0,0,0,3.063-3.062V206.008a3.066,3.066,0,0,0-3.062-3.062Zm5.222,20.243H220.8V217h4.355Zm0-10.121H220.8v-6.192h4.355Zm8.284,10.121h-4.355V217h4.355Zm0-10.121h-4.355v-6.192h4.355Z" transform="translate(-160.067 -164.872)"/><path class="c" d="M253.374,393.577h1.566a1.964,1.964,0,1,0,0-3.929h-1.566a1.964,1.964,0,1,0,0,3.929Z" transform="translate(-185.558 -302.672)"/><path class="c" d="M381.533,202.946a3.066,3.066,0,0,0-3.062,3.063v18.046a3.066,3.066,0,0,0,3.063,3.062H395.9a3.066,3.066,0,0,0,3.063-3.062V206.008a3.066,3.066,0,0,0-3.062-3.062Zm5.222,20.243H382.4V217h4.355Zm0-10.121H382.4v-6.192h4.355Zm8.284,10.121h-4.355V217h4.355Zm0-10.121h-4.355v-6.192h4.355Z" transform="translate(-279.337 -164.872)"/><path class="c" d="M414.972,393.577h1.566a1.964,1.964,0,1,0,0-3.929h-1.566a1.964,1.964,0,1,0,0,3.929Z" transform="translate(-304.828 -302.672)"/><path class="c" d="M132.51,157.636V122.984a1.964,1.964,0,1,0-3.929,0V157.6h-8.95V128.679a3.066,3.066,0,0,0-3.062-3.062H102.2a3.066,3.066,0,0,0-3.062,3.062V157.6h-8.95V84.886a1.415,1.415,0,0,1,.341-.921l18.858-21.978,18.859,21.978a1.416,1.416,0,0,1,.34.921v28.931a1.964,1.964,0,1,0,3.929,0V84.886a5.345,5.345,0,0,0-1.288-3.479L111.6,58.543a1.982,1.982,0,0,0-.226-.224,3.1,3.1,0,0,0-3.992,0,2.005,2.005,0,0,0-.226.224L88.219,80.618l-6.354-7.4a1.964,1.964,0,1,0-2.982,2.558l7.03,8.193a1.415,1.415,0,0,1,.341.921V157.6H77.3V128.679a3.066,3.066,0,0,0-3.062-3.062H59.869a3.066,3.066,0,0,0-3.063,3.062V157.6H47.856V84.886a1.416,1.416,0,0,1,.341-.921L67.054,61.987l5.855,6.824a1.965,1.965,0,1,0,2.982-2.558l-6.615-7.71a2.006,2.006,0,0,0-.226-.224,3.094,3.094,0,0,0-3.992,0,1.915,1.915,0,0,0-.226.224L45.891,80.618,26.949,58.543a1.977,1.977,0,0,0-.226-.224,3.094,3.094,0,0,0-3.992,0,1.982,1.982,0,0,0-.226.224L2.888,81.407A5.346,5.346,0,0,0,1.6,84.886v72.75a1.964,1.964,0,0,0,.365,3.894h130.18a1.964,1.964,0,0,0,.366-3.894ZM31.047,157.6H18.407V136.962H31.047Zm0-24.568H18.407v-3.487H31.047ZM43.926,157.6h-8.95V128.679a3.066,3.066,0,0,0-3.062-3.062H17.541a3.066,3.066,0,0,0-3.063,3.062V157.6H5.528V84.886a1.416,1.416,0,0,1,.341-.921L24.727,61.987,43.585,83.965a1.415,1.415,0,0,1,.341.921Zm29.448,0H60.735V136.962H73.374Zm0-24.568H60.735v-3.487H73.374ZM115.7,157.6H103.062V136.962H115.7Zm0-24.568H103.062v-3.487H115.7Z" transform="translate(0 -57.589)"/></g></svg>