<svg xmlns="http://www.w3.org/2000/svg" width="134.109" height="103.947" viewBox="0 0 134.109 103.947">
  <g id="Group_10702" data-name="Group 10702" transform="translate(-364.351 -713.021)">
    <g id="residential_1_" data-name="residential (1)" transform="translate(364.351 713.021)">
      <g id="Group_10563" data-name="Group 10563" transform="translate(3.597 1.966)">
        <path id="Path_44069" data-name="Path 44069" d="M217.378,165.1V90.425a3.372,3.372,0,0,0-.818-2.2l-19.7-22.864a1.144,1.144,0,0,0-1.468,0l-19.7,22.864a3.37,3.37,0,0,0-.818,2.2V165.1Z" transform="translate(-132.665 -65.094)" fill="#fff"/>
        <path id="Path_44070" data-name="Path 44070" d="M182.015,92.584a3.371,3.371,0,0,1,.818-2.2l17.794-20.65-3.767-4.372a1.144,1.144,0,0,0-1.468,0l-19.7,22.864a3.37,3.37,0,0,0-.818,2.2V165.1h7.143Z" transform="translate(-132.665 -65.094)" fill="#ececec"/>
        <path id="Path_44071" data-name="Path 44071" d="M379.255,165.1V90.425a3.379,3.379,0,0,0-.814-2.2L358.823,65.361a1.135,1.135,0,0,0-1.462,0L337.742,88.225a3.38,3.38,0,0,0-.814,2.2V165.1Z" transform="translate(-252.273 -65.094)" fill="#fff"/>
        <path id="Path_44072" data-name="Path 44072" d="M344.04,92.584a3.379,3.379,0,0,1,.814-2.2l17.719-20.65-3.752-4.372a1.135,1.135,0,0,0-1.462,0L337.741,88.225a3.379,3.379,0,0,0-.814,2.2V165.1h7.113V92.584Z" transform="translate(-252.273 -65.094)" fill="#ececec"/>
        <path id="Path_44073" data-name="Path 44073" d="M401.569,210.446H387.2a1.1,1.1,0,0,0-1.1,1.1v18.047a1.1,1.1,0,0,0,1.1,1.1h14.372a1.1,1.1,0,0,0,1.1-1.1V211.544A1.1,1.1,0,0,0,401.569,210.446Z" transform="translate(-288.565 -172.374)" fill="#02b9ef"/>
        <path id="Path_44074" data-name="Path 44074" d="M392.56,229.591V211.544a1.1,1.1,0,0,1,1.1-1.1H387.2a1.1,1.1,0,0,0-1.1,1.1v18.047a1.1,1.1,0,0,0,1.1,1.1h6.461A1.1,1.1,0,0,1,392.56,229.591Z" transform="translate(-288.565 -172.374)" fill="#02b9ef"/>
        <path id="Path_44075" data-name="Path 44075" d="M386.1,352.118h16.568v24.829H386.1Z" transform="translate(-288.565 -276.938)" fill="#02b9ef"/>
        <path id="Path_44076" data-name="Path 44076" d="M386.1,352.118h7.559v24.829H386.1Z" transform="translate(-288.565 -276.938)" fill="#02b9ef"/>
        <path id="Path_44077" data-name="Path 44077" d="M401.57,324.8H387.2a1.1,1.1,0,0,0-1.1,1.1v6.318h16.568V325.9A1.1,1.1,0,0,0,401.57,324.8Z" transform="translate(-288.566 -256.777)" fill="#02b9ef"/>
        <path id="Path_44078" data-name="Path 44078" d="M394.756,324.8H387.2a1.1,1.1,0,0,0-1.1,1.1v6.318h7.559V325.9A1.1,1.1,0,0,1,394.756,324.8Z" transform="translate(-288.565 -256.777)" fill="#02b9ef"/>
        <path id="Path_44079" data-name="Path 44079" d="M239.972,210.446H225.6a1.1,1.1,0,0,0-1.1,1.1v18.047a1.1,1.1,0,0,0,1.1,1.1h14.372a1.1,1.1,0,0,0,1.1-1.1V211.544A1.1,1.1,0,0,0,239.972,210.446Z" transform="translate(-169.295 -172.374)" fill="#02b9ef"/>
        <path id="Path_44080" data-name="Path 44080" d="M230.962,229.591V211.544a1.1,1.1,0,0,1,1.1-1.1H225.6a1.1,1.1,0,0,0-1.1,1.1v18.047a1.1,1.1,0,0,0,1.1,1.1h6.461A1.1,1.1,0,0,1,230.962,229.591Z" transform="translate(-169.295 -172.374)" fill="#02b9ef"/>
        <path id="Path_44081" data-name="Path 44081" d="M224.5,352.118H241.07v24.829H224.5Z" transform="translate(-169.295 -276.938)" fill="#02b9ef"/>
        <path id="Path_44082" data-name="Path 44082" d="M224.5,352.118h7.559v24.829H224.5Z" transform="translate(-169.295 -276.938)" fill="#02b9ef"/>
        <path id="Path_44083" data-name="Path 44083" d="M239.973,324.8H225.6a1.1,1.1,0,0,0-1.1,1.1v6.318h16.568V325.9A1.1,1.1,0,0,0,239.973,324.8Z" transform="translate(-169.296 -256.777)" fill="#02b9ef"/>
        <path id="Path_44084" data-name="Path 44084" d="M233.159,324.8H225.6a1.1,1.1,0,0,0-1.1,1.1v6.318h7.559V325.9A1.1,1.1,0,0,1,233.159,324.8Z" transform="translate(-169.295 -256.777)" fill="#02b9ef"/>
        <path id="Path_44085" data-name="Path 44085" d="M56.061,165.1V90.425a3.379,3.379,0,0,0-.814-2.2L35.629,65.361a1.135,1.135,0,0,0-1.462,0L14.548,88.225a3.379,3.379,0,0,0-.814,2.2V165.1Z" transform="translate(-13.734 -65.094)" fill="#fff"/>
        <path id="Path_44086" data-name="Path 44086" d="M20.847,92.584a3.379,3.379,0,0,1,.814-2.2L39.38,69.734l-3.751-4.372a1.135,1.135,0,0,0-1.462,0L14.548,88.226a3.379,3.379,0,0,0-.814,2.2v74.679h7.113Z" transform="translate(-13.734 -65.095)" fill="#ececec"/>
        <path id="Path_44087" data-name="Path 44087" d="M78.375,210.446H64a1.1,1.1,0,0,0-1.1,1.1v18.047a1.1,1.1,0,0,0,1.1,1.1H78.375a1.1,1.1,0,0,0,1.1-1.1V211.544A1.1,1.1,0,0,0,78.375,210.446Z" transform="translate(-50.026 -172.374)" fill="#02b9ef"/>
        <path id="Path_44088" data-name="Path 44088" d="M69.366,229.591V211.544a1.1,1.1,0,0,1,1.1-1.1H64a1.1,1.1,0,0,0-1.1,1.1v18.047a1.1,1.1,0,0,0,1.1,1.1h6.461A1.1,1.1,0,0,1,69.366,229.591Z" transform="translate(-50.026 -172.374)" fill="#02b9ef"/>
        <path id="Path_44089" data-name="Path 44089" d="M62.9,352.118H79.473v24.829H62.9Z" transform="translate(-50.026 -276.938)" fill="#02b9ef"/>
        <path id="Path_44090" data-name="Path 44090" d="M62.9,352.118h7.559v24.829H62.9Z" transform="translate(-50.026 -276.938)" fill="#02b9ef"/>
        <path id="Path_44091" data-name="Path 44091" d="M78.375,324.8H64a1.1,1.1,0,0,0-1.1,1.1v6.318H79.473V325.9A1.1,1.1,0,0,0,78.375,324.8Z" transform="translate(-50.026 -256.777)" fill="#02b9ef"/>
        <path id="Path_44092" data-name="Path 44092" d="M71.562,324.8H64a1.1,1.1,0,0,0-1.1,1.1v6.318h7.559V325.9A1.1,1.1,0,0,1,71.562,324.8Z" transform="translate(-50.026 -256.777)" fill="#02b9ef"/>
      </g>
      <g id="Group_10564" data-name="Group 10564" transform="translate(0 0)">
        <path id="Path_44093" data-name="Path 44093" d="M72.711,202.946H58.339a3.066,3.066,0,0,0-3.062,3.063v18.046a3.066,3.066,0,0,0,3.062,3.062H72.711a3.066,3.066,0,0,0,3.062-3.062V206.008A3.066,3.066,0,0,0,72.711,202.946Zm-9.151,20.243H59.206V217h4.355Zm0-10.121H59.206v-6.192h4.355Zm8.284,10.121H67.49V217h4.355Zm0-10.121H67.49v-6.192h4.355Z" transform="translate(-40.798 -164.872)" fill="#0183a9"/>
        <path id="Path_44094" data-name="Path 44094" d="M91.777,393.577h1.566a1.964,1.964,0,1,0,0-3.929H91.777a1.964,1.964,0,1,0,0,3.929Z" transform="translate(-66.288 -302.672)" fill="#0183a9"/>
        <path id="Path_44095" data-name="Path 44095" d="M219.936,202.946a3.066,3.066,0,0,0-3.062,3.063v18.046a3.066,3.066,0,0,0,3.062,3.062h14.372a3.066,3.066,0,0,0,3.063-3.062V206.008a3.066,3.066,0,0,0-3.062-3.062Zm5.222,20.243H220.8V217h4.355Zm0-10.121H220.8v-6.192h4.355Zm8.284,10.121h-4.355V217h4.355Zm0-10.121h-4.355v-6.192h4.355Z" transform="translate(-160.067 -164.872)" fill="#0183a9"/>
        <path id="Path_44096" data-name="Path 44096" d="M253.374,393.577h1.566a1.964,1.964,0,1,0,0-3.929h-1.566a1.964,1.964,0,1,0,0,3.929Z" transform="translate(-185.558 -302.672)" fill="#0183a9"/>
        <path id="Path_44097" data-name="Path 44097" d="M381.533,202.946a3.066,3.066,0,0,0-3.062,3.063v18.046a3.066,3.066,0,0,0,3.063,3.062H395.9a3.066,3.066,0,0,0,3.063-3.062V206.008a3.066,3.066,0,0,0-3.062-3.062Zm5.222,20.243H382.4V217h4.355Zm0-10.121H382.4v-6.192h4.355Zm8.284,10.121h-4.355V217h4.355Zm0-10.121h-4.355v-6.192h4.355Z" transform="translate(-279.337 -164.872)" fill="#0183a9"/>
        <path id="Path_44098" data-name="Path 44098" d="M414.972,393.577h1.566a1.964,1.964,0,1,0,0-3.929h-1.566a1.964,1.964,0,1,0,0,3.929Z" transform="translate(-304.828 -302.672)" fill="#0183a9"/>
        <path id="Path_44099" data-name="Path 44099" d="M132.51,157.636V122.984a1.964,1.964,0,1,0-3.929,0V157.6h-38.4V84.886a1.415,1.415,0,0,1,.341-.921l18.858-21.978,18.859,21.978a1.416,1.416,0,0,1,.34.921v28.931a1.964,1.964,0,1,0,3.929,0V84.886a5.345,5.345,0,0,0-1.288-3.479L111.6,58.543a1.982,1.982,0,0,0-.226-.224,3.1,3.1,0,0,0-3.992,0,2.005,2.005,0,0,0-.226.224L88.219,80.618l-6.354-7.4a1.964,1.964,0,1,0-2.982,2.558l7.03,8.193a1.415,1.415,0,0,1,.341.921V157.6h-38.4V84.886a1.416,1.416,0,0,1,.341-.921L67.054,61.987l5.855,6.824a1.965,1.965,0,1,0,2.982-2.558l-6.615-7.71a2.006,2.006,0,0,0-.226-.224,3.094,3.094,0,0,0-3.992,0,1.915,1.915,0,0,0-.226.224L45.891,80.618,26.949,58.543a1.977,1.977,0,0,0-.226-.224,3.094,3.094,0,0,0-3.992,0,1.982,1.982,0,0,0-.226.224L2.888,81.407A5.346,5.346,0,0,0,1.6,84.886v72.75a1.964,1.964,0,0,0,.365,3.894h130.18a1.964,1.964,0,0,0,.366-3.894ZM31.047,157.6h0Zm12.879,0H5.528V84.886a1.416,1.416,0,0,1,.341-.921L24.727,61.987,43.585,83.965a1.415,1.415,0,0,1,.341.921Zm29.448,0h0Zm42.328,0h0Z" transform="translate(0 -57.589)" fill="#4a4a4a"/>
      </g>
    </g>
    <g id="Path_44316" data-name="Path 44316" transform="translate(378 780)" fill="none">
      <path d="M3,0H17a3,3,0,0,1,3,3l-.039,33.861L-.016,36.813,0,3A3,3,0,0,1,3,0Z" stroke="none"/>
      <path d="M 3.499767303466797 3.5 L 3.485990524291992 33.32094192504883 L 16.46487236022949 33.35226821899414 L 16.49941825866699 3.5 L 3.499767303466797 3.5 M 2.999998092651367 0 L 16.99999809265137 0 C 18.65685653686523 0 19.99999809265137 1.343147277832031 19.99999809265137 3 L 19.96081733703613 36.8607177734375 L -0.01562309265136719 36.8125 L -1.9073486328125e-06 3 C -1.9073486328125e-06 1.343147277832031 1.343147277832031 0 2.999998092651367 0 Z" stroke="none" fill="#0183a9"/>
    </g>
    <g id="Path_44317" data-name="Path 44317" transform="translate(421 780)" fill="none">
      <path d="M3,0H17a3,3,0,0,1,3,3l-.039,33.861L-.016,36.813,0,3A3,3,0,0,1,3,0Z" stroke="none"/>
      <path d="M 3.499767303466797 3.5 L 3.485990524291992 33.32094192504883 L 16.46487236022949 33.35226821899414 L 16.49941825866699 3.5 L 3.499767303466797 3.5 M 2.999998092651367 0 L 16.99999809265137 0 C 18.65685653686523 0 19.99999809265137 1.343147277832031 19.99999809265137 3 L 19.96081733703613 36.8607177734375 L -0.01562309265136719 36.8125 L -1.9073486328125e-06 3 C -1.9073486328125e-06 1.343147277832031 1.343147277832031 0 2.999998092651367 0 Z" stroke="none" fill="#0183a9"/>
    </g>
    <g id="Path_44319" data-name="Path 44319" transform="translate(463 780)" fill="none">
      <path d="M3,0H17a3,3,0,0,1,3,3l-.039,33.861L-.016,36.813,0,3A3,3,0,0,1,3,0Z" stroke="none"/>
      <path d="M 3.499767303466797 3.5 L 3.485990524291992 33.32094192504883 L 16.46487236022949 33.35226821899414 L 16.49941825866699 3.5 L 3.499767303466797 3.5 M 2.999998092651367 0 L 16.99999809265137 0 C 18.65685653686523 0 19.99999809265137 1.343147277832031 19.99999809265137 3 L 19.96081733703613 36.8607177734375 L -0.01562309265136719 36.8125 L -1.9073486328125e-06 3 C -1.9073486328125e-06 1.343147277832031 1.343147277832031 0 2.999998092651367 0 Z" stroke="none" fill="#0183a9"/>
    </g>
    <path id="Path_44315" data-name="Path 44315" d="M0,.047,23,.054V3.861L0,3.969Z" transform="translate(377 813)" fill="#4a4a4a"/>
    <path id="Path_44318" data-name="Path 44318" d="M0,.047,23,.054V3.861L0,3.969Z" transform="translate(420 813)" fill="#4a4a4a"/>
    <path id="Path_44320" data-name="Path 44320" d="M0,.047,23,.054V3.861L0,3.969Z" transform="translate(462 813)" fill="#4a4a4a"/>
    <rect id="Rectangle_9169" data-name="Rectangle 9169" width="14" height="4" transform="translate(381 789)" fill="#0183a9"/>
    <rect id="Rectangle_9170" data-name="Rectangle 9170" width="14" height="4" transform="translate(424 789)" fill="#0183a9"/>
  </g>
</svg>
