<svg xmlns="http://www.w3.org/2000/svg" width="108.701" height="103.94" viewBox="0 0 108.701 103.94"><defs><style>.a{fill:#4a4a4a;}</style></defs><g transform="translate(0 0)"><path class="a" d="M46.231,193.862h12.9a1.614,1.614,0,0,0,1.614-1.614v-22.44a1.614,1.614,0,0,0-1.614-1.614h-12.9a1.614,1.614,0,0,0-1.614,1.614v22.441A1.614,1.614,0,0,0,46.231,193.862Zm1.614-3.229V177.593H57.52v13.041Zm9.674-19.212v2.942H47.846v-2.942Z" transform="translate(-35.013 -134.37)"/><path class="a" d="M142.052,193.862h12.9a1.614,1.614,0,0,0,1.614-1.614v-22.44a1.614,1.614,0,0,0-1.614-1.614h-12.9a1.614,1.614,0,0,0-1.614,1.614v22.441A1.614,1.614,0,0,0,142.052,193.862Zm1.614-3.229V177.593h9.674v13.041Zm9.674-19.212v2.942h-9.674v-2.942Z" transform="translate(-110.209 -134.37)"/><path class="a" d="M140.438,336.9a1.614,1.614,0,0,0,1.614,1.614h12.9a1.614,1.614,0,0,0,1.614-1.614V314.458a1.614,1.614,0,0,0-1.614-1.614h-12.9a1.614,1.614,0,0,0-1.614,1.614Zm3.229-1.614V322.244h9.674v13.041Zm9.674-19.212v2.942h-9.674v-2.942Z" transform="translate(-110.209 -247.884)"/><path class="a" d="M44.617,320.629a1.614,1.614,0,0,0,1.614,1.614h12.9a1.614,1.614,0,0,0,1.614-1.614v-6.171a1.614,1.614,0,0,0-1.614-1.614h-12.9a1.614,1.614,0,0,0-1.614,1.614Zm3.229-4.557H57.52v2.942H47.846Z" transform="translate(-35.013 -247.884)"/><path class="a" d="M88.852,424.759a1.615,1.615,0,1,0,.593,1.96A1.636,1.636,0,0,0,88.852,424.759Z" transform="translate(-67.759 -335.5)"/><path class="a" d="M98.491,59.844a6.782,6.782,0,1,0,6.782-6.782A6.79,6.79,0,0,0,98.491,59.844Zm10.336,0a3.554,3.554,0,1,1-3.554-3.554A3.558,3.558,0,0,1,108.827,59.844Z" transform="translate(-77.291 -44.021)"/><path class="a" d="M401.57,169.807a1.614,1.614,0,0,0-1.614-1.614h-12.9a1.614,1.614,0,0,0-1.614,1.614v22.441a1.614,1.614,0,0,0,1.614,1.614h12.9a1.614,1.614,0,0,0,1.614-1.614Zm-3.229,1.614v2.942h-9.674v-2.942Zm-9.674,19.212V177.593h9.674v13.041Z" transform="translate(-302.473 -134.37)"/><path class="a" d="M305.749,169.807a1.614,1.614,0,0,0-1.614-1.614h-12.9a1.614,1.614,0,0,0-1.614,1.614v22.441a1.614,1.614,0,0,0,1.614,1.614h12.9a1.614,1.614,0,0,0,1.614-1.614Zm-3.229,1.614v2.942h-9.674v-2.942Zm-9.674,19.212V177.593h9.674v13.041Z" transform="translate(-227.277 -134.37)"/><path class="a" d="M304.135,312.844h-12.9a1.614,1.614,0,0,0-1.614,1.614V336.9a1.614,1.614,0,0,0,1.614,1.614h12.9a1.614,1.614,0,0,0,1.614-1.614V314.458A1.614,1.614,0,0,0,304.135,312.844Zm-1.614,3.229v2.942h-9.674v-2.942Zm-9.674,19.212V322.244h9.674v13.041Z" transform="translate(-227.277 -247.884)"/><path class="a" d="M399.955,312.844h-12.9a1.614,1.614,0,0,0-1.614,1.614v6.171a1.614,1.614,0,0,0,1.614,1.614h12.9a1.614,1.614,0,0,0,1.614-1.614v-6.171A1.614,1.614,0,0,0,399.955,312.844Zm-1.614,6.171h-9.674v-2.942h9.674Z" transform="translate(-302.473 -247.884)"/><path class="a" d="M406.791,425.541a1.613,1.613,0,1,0-.664,2A1.626,1.626,0,0,0,406.791,425.541Z" transform="translate(-316.796 -335.557)"/><path class="a" d="M343.491,59.844a6.782,6.782,0,1,0,6.782-6.782A6.79,6.79,0,0,0,343.491,59.844Zm10.336,0a3.554,3.554,0,1,1-3.554-3.554A3.558,3.558,0,0,1,353.827,59.844Z" transform="translate(-269.555 -44.021)"/><path class="a" d="M107.087,53.441a1.614,1.614,0,0,0,1.614-1.614V36.266a.36.36,0,0,0,0-.043,1.611,1.611,0,0,0-.533-1.16L81.8,11.472a1.614,1.614,0,0,0-2.153,0L62.137,27.133V18.447a1.614,1.614,0,0,0-1.614-1.614H48.18a1.614,1.614,0,0,0-1.614,1.614v8.687L29.059,11.471a1.614,1.614,0,0,0-2.153,0L.538,35.062A1.61,1.61,0,0,0,0,36.222a.36.36,0,0,0,0,.043V98.953a1.614,1.614,0,1,0,3.229,0V37.88H52.736v73.892h-27V89.936a1.614,1.614,0,0,0-1.614-1.614h-12.9A1.614,1.614,0,0,0,9.6,89.936v21.836H3.229V105.41a1.614,1.614,0,1,0-3.229,0v7.976A1.614,1.614,0,0,0,1.614,115H107.087a1.614,1.614,0,0,0,1.614-1.614v-55.1a1.614,1.614,0,1,0-3.229,0v53.487H99.1V89.936a1.614,1.614,0,0,0-1.614-1.614H84.58a1.614,1.614,0,0,0-1.614,1.614v21.836h-27V37.88h49.507V51.827A1.614,1.614,0,0,0,107.087,53.441ZM86.194,91.55h9.674v20.222H86.194Zm-36.4-71.488h9.114v9.96L54.351,34.1l-4.556-4.076V20.062ZM5.84,34.651l22.143-19.81,22.143,19.81Zm6.993,77.121V91.55h9.674v20.222ZM58.576,34.651l22.143-19.81,22.143,19.81Z" transform="translate(0 -11.06)"/></g></svg>