<svg xmlns="http://www.w3.org/2000/svg" width="28.901" height="28.901" viewBox="0 0 28.901 28.901"><defs><style>.a{fill:#6b6e71;}</style></defs><ellipse class="a" cx="2.783" cy="2.783" rx="2.783" ry="2.783" transform="translate(11.667 11.668)"/><path class="a" d="M159.729,165.835a6.107,6.107,0,1,0,6.107-6.107A6.107,6.107,0,0,0,159.729,165.835Zm1.557,0a.317.317,0,0,1-.634,0,5.194,5.194,0,0,1,3.07-4.735.317.317,0,1,1,.259.579A4.558,4.558,0,0,0,161.286,165.835Zm7.968,0a3.417,3.417,0,1,1-3.417-3.418,3.417,3.417,0,0,1,3.417,3.418Zm-3.1-4.867a.317.317,0,0,1-.317.317,4.6,4.6,0,0,0-.752.062.317.317,0,0,1-.1-.626,5.238,5.238,0,0,1,.855-.07A.317.317,0,0,1,166.153,160.968Z" transform="translate(-151.386 -151.384)"/><path class="a" d="M88.972,32.847a12.685,12.685,0,0,1,18.112,2.042l.722-1.878q-.266-.3-.549-.58a14.451,14.451,0,0,0-20.437,0q-.284.284-.549.58l.722,1.878a12.726,12.726,0,0,1,1.977-2.042Z" transform="translate(-82.589 -28.199)"/><path class="a" d="M53.147,114.66a12.665,12.665,0,0,1,1.944,4.569.317.317,0,0,1-.373.375l-6.282-1.266a6.729,6.729,0,0,1,0,6.94l6.282-1.266a.317.317,0,0,1,.373.375,12.709,12.709,0,0,1-10.078,9.9.317.317,0,0,1-.376-.312v-5.72a6.751,6.751,0,0,1-3.957,0v5.72a.317.317,0,0,1-.376.312,12.709,12.709,0,0,1-10.078-9.9.317.317,0,0,1,.373-.375l6.282,1.266a6.729,6.729,0,0,1,0-6.94L30.6,119.6a.317.317,0,0,1-.373-.375,12.665,12.665,0,0,1,1.944-4.57l-.746-1.941a14.451,14.451,0,1,0,22.471,0Z" transform="translate(-28.207 -107.357)"/></svg>