<svg xmlns="http://www.w3.org/2000/svg" width="27.12" height="27.119" viewBox="0 0 27.12 27.119"><defs><style>.a{fill:#7d8a92;}</style></defs><path class="a" d="M11.3,53.805H28.788L24.579,51H15.511Z" transform="translate(-7.421 -28.556)"/><path class="a" d="M45.676,35H41v6.763l4.676,3.117Z" transform="translate(-23.232 -20.038)"/><path class="a" d="M47.208,3a4.208,4.208,0,1,0,4.208,4.208A4.213,4.213,0,0,0,47.208,3Zm-1.4,1.87a.935.935,0,1,1-.935.935A.936.936,0,0,1,45.805,4.87Zm-.6,5.006-.661-.661L49.216,4.54l.661.661Zm3.41-.331a.935.935,0,1,1,.935-.935A.936.936,0,0,1,48.611,9.546Z" transform="translate(-24.297 -3)"/><path class="a" d="M5,35h.935V45.287H5Z" transform="translate(-4.065 -20.038)"/><path class="a" d="M21,35v6.546h3.741V35Zm2.805,3.741H22.87v-.935h.935Z" transform="translate(-12.584 -20.038)"/><path class="a" d="M3,59H28.249v.935H3Z" transform="translate(-3 -32.816)"/><path class="a" d="M17.459,7.358a1.275,1.275,0,0,1,1.84,0l8.053,9.4h1.233l-8.576-10a2.147,2.147,0,0,0-3.26,0l-8.576,10H9.406Z" transform="translate(-5.754 -4.597)"/><path class="a" d="M20.975,10.115,13.442,18.9H28.926l-7.532-8.788A.316.316,0,0,0,20.975,10.115Zm1.612,2.242v.935h-1.87v.935h1.87v2.805h-.935v.935h-.935v-.935h-.935V16.1h1.87v-.935h-1.87V12.357h.935v-.935h.935v.935Z" transform="translate(-8.56 -6.746)"/><path class="a" d="M31,35v6.546h3.741V35Zm1.87,3.741h-.935v-.935h.935Z" transform="translate(-17.908 -20.038)"/><path class="a" d="M9,44.881l4.676-3.117V35H9Z" transform="translate(-6.195 -20.038)"/><path class="a" d="M3,31H28.249v.935H3Z" transform="translate(-3 -17.908)"/><path class="a" d="M53,35h.935V45.287H53Z" transform="translate(-29.621 -20.038)"/></svg>