<svg xmlns="http://www.w3.org/2000/svg" width="90.293" height="90.293" viewBox="0 0 90.293 90.293"><defs><style>.a{fill:none;}.b{fill:#02b9ef;}</style></defs><path class="a" d="M45.146,0A45.146,45.146,0,1,0,90.293,45.146,45.146,45.146,0,0,0,45.146,0Zm0,87.38A42.234,42.234,0,1,1,87.38,45.146,42.234,42.234,0,0,1,45.146,87.38Z"/><path class="b" d="M159.11,156.507l-29.553,29.553-14.99-14.99a1.456,1.456,0,0,0-2.059,2.059l16.02,16.02a1.456,1.456,0,0,0,2.059,0l30.583-30.583a1.456,1.456,0,0,0-2.059-2.059Z" transform="translate(-91.692 -127.682)"/></svg>