<svg xmlns="http://www.w3.org/2000/svg" width="38.105" height="21.583" viewBox="0 0 38.105 21.583"><defs><style>.a{fill:#7d8a92;}</style></defs><path class="a" d="M1.488,111A1.488,1.488,0,0,0,0,112.488v18.606a1.488,1.488,0,0,0,2.977,0V112.488A1.488,1.488,0,0,0,1.488,111Z" transform="translate(0 -111)"/><g transform="translate(35.129)"><path class="a" d="M473.489,111A1.488,1.488,0,0,0,472,112.488v18.606a1.488,1.488,0,0,0,2.977,0V112.488A1.488,1.488,0,0,0,473.489,111Z" transform="translate(-472 -111)"/></g><g transform="translate(2.977 2.53)"><g transform="translate(0 0)"><path class="a" d="M63.146,151.773H43.782l4.262-4.227a1.488,1.488,0,1,0-2.1-2.114l-4.626,4.589a4.455,4.455,0,0,0,0,6.333l4.626,4.589a1.488,1.488,0,0,0,2.1-2.114l-4.112-4.078H63.146a1.488,1.488,0,1,0,0-2.977Z" transform="translate(-40 -145)"/></g></g><g transform="translate(26.644 2.53)"><g transform="translate(0 0)"><path class="a" d="M365.163,150.02l-4.626-4.588a1.488,1.488,0,0,0-2.1,2.114l4.626,4.588a1.478,1.478,0,0,1,0,2.106l-4.626,4.589a1.488,1.488,0,0,0,2.1,2.114l4.626-4.589a4.455,4.455,0,0,0,0-6.333Z" transform="translate(-358 -145)"/></g></g></svg>